<mxfile host="app.diagrams.net" modified="2023-11-13T08:45:34.265Z" agent="Mozilla/5.0 (Macintosh; Intel Mac OS X 10_15_7) AppleWebKit/537.36 (KHTML, like Gecko) Chrome/119.0.0.0 Safari/537.36" version="22.1.0" etag="0cI3b68j-ztEm-sNA2NV" type="github">
  <diagram name="第 1 页" id="Z4tKayM-byElM7oWahdz">
    <mxGraphModel>
      <root>
        <mxCell id="0" />
        <mxCell id="1" parent="0" />
      </root>
    </mxGraphModel>
  </diagram>
</mxfile>
